<svg t="1642751366482" class="icon" viewBox="0 0 1024 1024" version="1.1" xmlns="http://www.w3.org/2000/svg" p-id="1289" width="48" height="48"><path d="M610.816 754.688c-6.144 0-12.8-1.536-18.432-5.12L506.88 701.952l-88.064 44.032c-13.312 6.656-28.16 5.12-39.936-3.584s-16.896-23.04-13.824-37.376l18.432-96.256-68.608-70.144c-10.24-10.24-13.312-25.088-8.704-38.912 5.12-13.824 16.896-23.552 31.232-25.088l96.768-11.776 45.568-87.552c6.656-12.8 19.456-20.48 33.792-20.48h0.512c14.336 0 27.136 8.192 33.792 20.992l0.512 0.512L588.8 465.92l97.28 16.384c13.824 2.048 25.6 12.288 29.696 26.112 4.096 13.824 0 28.672-10.24 38.912l-72.192 66.56 14.336 97.792c2.048 14.336-4.096 28.16-16.384 36.864-6.144 4.096-13.312 6.144-20.48 6.144z m-13.312-35.84s0 0.512 0 0z m-182.784-4.096z m85.504-15.872z m6.656-49.664c6.144 0 12.8 1.536 18.432 5.12l68.096 37.888-11.264-77.824c-1.536-12.8 3.072-25.088 11.776-32.768l56.832-52.736-76.8-12.8c-12.8-2.048-23.552-9.728-28.672-21.504l-32.768-71.168-35.84 69.12c-5.12 11.264-16.384 19.456-29.184 20.992L370.176 522.24 424.96 578.048c8.192 7.68 11.776 19.456 10.24 31.744l-0.512 1.536-14.848 76.8 69.632-34.816c5.632-2.56 11.264-4.096 17.408-4.096z m-118.784-35.328z m289.792-81.408z m-334.336-6.656c-0.512 0 0 0 0 0z m7.168-23.04c0.512 0 0 0 0 0z" p-id="1290" fill="#ffffff"></path><path d="M949.76 902.656h-870.4c-37.888 0-69.12-31.232-69.12-69.12v-156.672l22.016-3.072c61.952-8.704 108.544-62.464 108.544-125.44 0-62.464-46.592-116.736-108.544-125.952L10.24 419.328V285.184c0-37.888 31.232-69.12 69.12-69.12h870.4c37.888 0 69.12 31.232 69.12 69.12v134.144l-22.016 3.072c-61.952 9.216-108.544 62.976-108.544 125.952 0 62.464 46.592 116.736 108.544 125.952l22.016 3.072v156.16c0 37.888-31.232 69.12-69.12 69.12zM61.44 720.384v113.152c0 9.728 8.192 17.92 17.92 17.92h870.4c9.728 0 17.92-8.192 17.92-17.92v-113.664c-75.776-20.992-130.56-91.648-130.56-171.52 0-80.384 54.784-150.528 130.56-171.52V285.184c0-9.728-8.192-17.92-17.92-17.92h-870.4c-9.728 0-17.92 8.192-17.92 17.92v91.648c75.776 20.992 130.56 91.648 130.56 171.52 0 80.896-54.784 151.04-130.56 172.032z" p-id="1291" fill="#ffffff"></path></svg>