<svg t="1642754371178" class="icon" viewBox="0 0 1025 1024" version="1.1" xmlns="http://www.w3.org/2000/svg" p-id="4929" width="48" height="48"><path d="M1025.086236 1024H0l12.146098-670.183177a91.725259 91.725259 0 0 1 91.725259-90.108248h817.355866a91.737602 91.737602 0 0 1 91.725259 90.108248z m-944.643024-78.999012h864.199812l-10.67721-589.752308a12.800309 12.800309 0 0 0-12.738591-12.504062H103.871357a12.800309 12.800309 0 0 0-12.738591 12.504062z" p-id="4930" fill="#ffffff"></path><path d="M774.017503 339.856216H251.081077v-119.794594C251.081077 98.711734 349.829842 0 471.130355 0h82.825526c121.349888 0 220.061622 98.748764 220.061622 220.061622z m-443.937414-78.999011h364.938402v-40.795583A141.210733 141.210733 0 0 0 553.955881 78.999012h-82.825526a141.210733 141.210733 0 0 0-141.050266 141.06261zM473.043612 664.443405h78.999012v178.488392h-78.999012z" p-id="4931" fill="#ffffff"></path><path d="M512.543118 737.110152a144.518817 144.518817 0 1 1 144.518817-144.518817 144.679283 144.679283 0 0 1-144.518817 144.518817z m0-210.038622a65.519805 65.519805 0 1 0 65.519805 65.519805A65.593867 65.593867 0 0 0 512.543118 527.07153z" p-id="4932" fill="#ffffff"></path></svg>